<svg xmlns="http://www.w3.org/2000/svg" viewBox="0 0 1000 680" preserveAspectRatio="none">
  <defs>
    <clipPath id="boardClip">
      <rect x="18" y="18" width="964" height="644" rx="34"/>
    </clipPath>
    <linearGradient id="body" x1="0" y1="0" x2="0" y2="1">
      <stop offset="0" stop-color="#262626"/>
      <stop offset="1" stop-color="#0e0e0e"/>
    </linearGradient>
    <linearGradient id="gloss" x1="0" y1="0" x2="1" y2="1">
      <stop offset="0" stop-color="#fff" stop-opacity=".16"/>
      <stop offset=".45" stop-color="#fff" stop-opacity=".03"/>
      <stop offset="1" stop-color="#000" stop-opacity=".18"/>
    </linearGradient>
    <pattern id="stripe" width="156" height="92" patternUnits="userSpaceOnUse" patternTransform="skewX(-23)">
      <rect width="78" height="92" fill="#f5f2ea"/>
      <rect x="78" width="78" height="92" fill="#1d1d1d"/>
    </pattern>
  </defs>
  <g clip-path="url(#boardClip)">
    <rect x="18" y="18" width="964" height="644" fill="url(#body)"/>
    <rect x="18" y="18" width="964" height="108" fill="url(#stripe)"/>
    <rect x="18" y="126" width="964" height="14" fill="#070707" opacity=".62"/>
    <rect x="18" y="140" width="964" height="522" fill="#151515"/>
    <rect x="18" y="18" width="964" height="644" fill="url(#gloss)"/>
  </g>
  <rect x="18" y="18" width="964" height="644" rx="34" fill="none" stroke="#050505" stroke-width="18"/>
  <rect x="54" y="166" width="892" height="360" rx="16" fill="#050505" opacity=".92"/>
  <g fill="#e8e8e8" opacity=".9">
    <circle cx="74" cy="74" r="16"/>
    <circle cx="74" cy="126" r="16"/>
    <circle cx="134" cy="126" r="16"/>
  </g>
  <g fill="none" stroke="#f0f0f0" stroke-width="3" opacity=".68">
    <path d="M86 576h300M86 616h420M548 576h340M548 616h340"/>
  </g>
  <g fill="#f5f5f5" font-family="Courier New, monospace" font-size="24" letter-spacing="2" opacity=".86">
    <text x="86" y="562">PRODUCTION</text>
    <text x="548" y="562">SCENE</text>
    <text x="86" y="604">OUR STORY</text>
    <text x="548" y="604">TAKE 02</text>
  </g>
</svg>
